<svg width="27" height="32" viewBox="0 0 27 32" fill="none" xmlns="http://www.w3.org/2000/svg">
<path id="Vector" d="M18.0396 5.48899C16.9401 6.78774 15.1804 7.81247 13.421 7.66595C13.2011 5.9099 14.0624 4.04372 15.0705 2.89113C16.17 1.5558 18.0946 0.604419 19.6525 0.53125C19.8357 2.36066 19.1208 4.15348 18.0396 5.48899ZM19.6341 8.01368C17.0865 7.86735 14.9055 9.45877 13.6959 9.45877C12.468 9.45877 10.6168 8.08685 8.60077 8.12344C5.98001 8.16002 3.54233 9.64169 2.20437 12.0018C-0.544857 16.7217 1.48966 23.7102 4.14707 27.552C5.44838 29.4546 7.00625 31.5401 9.05892 31.4669C11.0018 31.3937 11.7715 30.2047 14.1175 30.2047C16.4817 30.2047 17.16 31.4669 19.2126 31.4303C21.3386 31.3937 22.6766 29.5279 23.9779 27.6251C25.4623 25.4665 26.0672 23.3625 26.1038 23.2528C26.0672 23.2162 21.9985 21.6613 21.9619 16.9778C21.9252 13.0629 25.1692 11.1969 25.3158 11.0871C23.4829 8.37953 20.6239 8.08685 19.6341 8.01368Z" fill="white"/>
</svg>
