<svg width="228" height="67" viewBox="0 0 228 67" fill="none" xmlns="http://www.w3.org/2000/svg">
<g id="Group 1">
<g id="Group">
<path id="Vector" d="M44.6515 27.373V53.6612L21.9574 66.7636L0.0644531 54.1286V53.1104L0.871181 52.6431V52.7266L21.9574 64.8942L43.0324 52.7266V28.3022L43.7724 27.8793L44.6515 27.373Z" fill="white"/>
<path id="Vector_2" opacity="0.5" d="M21.8795 40.5141L0.871181 52.6428L0.0644531 53.1101V27.918L21.8795 40.5141Z" fill="white"/>
<path id="Vector_3" d="M48.418 0V25.1977L44.6515 27.3731L43.7724 27.8794L43.0324 28.3022L21.8795 40.5144L0.0644531 27.9183L21.9518 15.2833L48.418 0Z" fill="white"/>
</g>
<g id="Group_2">
<path id="Vector_4" d="M74.0013 23.7925C71.4365 23.8314 68.8661 24.8718 67.4529 27.3977V24.1263H65.667V42.4974H67.4919V32.2715C67.4919 28.4771 70.1346 25.6118 73.9234 25.5784C77.9014 25.5395 80.4718 27.7705 80.4718 31.9377V42.4974H82.2911V31.8987C82.2911 26.8024 78.9085 23.7925 73.9958 23.7925H74.0013Z" fill="white"/>
<path id="Vector_5" d="M96.2059 23.8315C91.0373 23.8315 86.8701 27.8095 86.8701 33.312C86.8701 39.1538 91.0373 42.798 96.2059 42.798C99.1435 42.798 102.343 41.6074 104.123 39.2651L102.821 38.2191C101.447 40.044 98.6205 41.0121 96.2059 41.0121C92.4115 41.0121 89.1011 38.4806 88.7284 34.1688H105.28C105.987 26.9917 101.375 23.8315 96.2059 23.8315ZM88.7284 32.5665C89.1345 28.071 92.4115 25.5006 96.2059 25.5006C100.629 25.5006 103.606 28.0321 103.644 32.5665H88.7284Z" fill="white"/>
<path id="Vector_6" d="M122.872 24.2043V24.1265H120.674L115.21 31.6374L109.741 24.1265H107.549V24.2043L114.131 32.9782L107.026 42.4252V42.4976H109.185L115.21 34.2801L121.23 42.4976H123.389V42.4252L116.29 32.9782L122.872 24.2043Z" fill="white"/>
<path id="Vector_7" d="M141.949 24.1264V28.1433C140.425 25.278 137.415 23.9038 134.438 23.9038C129.303 23.9038 125.103 27.6982 125.103 33.3119C125.103 38.9256 129.303 42.7979 134.438 42.7979C137.415 42.7979 140.163 41.4571 141.949 38.5918V42.4975H143.774V24.1264H141.949ZM134.438 41.012C130.271 41.012 126.927 37.9242 126.927 33.3119C126.927 28.6997 130.271 25.6508 134.438 25.6508C144.664 25.6508 144.664 41.012 134.438 41.012Z" fill="white"/>
<path id="Vector_8" d="M156.31 31.2311C153.967 31.0808 152.888 30.4132 152.888 29.2226C152.888 28.032 154.079 27.3977 156.232 27.3977C157.979 27.3977 159.47 27.8094 160.772 29.0334L163.303 26.0569C161.183 24.1986 159.025 23.6367 156.165 23.6367C152.816 23.6367 148.431 25.1222 148.431 29.3617C148.431 33.6012 152.56 34.7918 156.02 35.0533C158.624 35.2035 159.664 35.9101 159.664 37.173C159.664 38.5139 158.068 39.2205 156.354 39.1815C154.307 39.1426 151.781 38.436 150.034 36.6167L147.803 39.8547C150.479 42.6421 153.383 43.1261 156.282 43.1261C161.528 43.1261 164.165 40.3387 164.165 37.1007C164.165 32.227 159.776 31.448 156.315 31.2255L156.31 31.2311Z" fill="white"/>
<path id="Vector_9" d="M176.394 38.7087C173.568 38.7087 171.187 36.8505 171.187 33.3509C171.187 30.1518 173.418 27.9208 176.467 27.9208C177.73 27.9208 179.07 28.4049 180.15 29.373L183.015 26.363C181.007 24.3935 178.998 23.6479 176.394 23.6479C171.075 23.6479 166.652 26.847 166.652 33.3565C166.652 39.866 171.075 43.0595 176.394 43.0595C179.109 43.0595 181.34 42.2416 183.46 40.1608L180.411 37.1843C179.293 38.297 177.846 38.7087 176.394 38.7087Z" fill="white"/>
<path id="Vector_10" d="M200.529 24.1653L200.379 26.6912C199.339 24.8719 196.996 23.7146 194.543 23.7146C189.185 23.6812 184.984 26.9916 184.984 33.3119C184.984 39.6322 189.001 43.0928 194.431 43.0538C196.479 43.0204 199.339 41.98 200.379 39.8214L200.607 42.4975H204.88V24.1653H200.529ZM194.954 38.8922C191.939 38.8922 189.524 36.8059 189.524 33.3119C189.524 29.8179 191.939 27.7705 194.954 27.7705C202.093 27.7705 202.093 38.8922 194.954 38.8922Z" fill="white"/>
<path id="Vector_11" d="M220.168 23.8649C217.865 23.8649 216.001 24.7941 214.143 26.619L213.848 24.1265H209.792V42.4976H214.293V33.1228C214.293 30.3355 216.19 27.9876 218.978 27.9876C221.765 27.9876 223.401 30.1073 223.401 32.8947V42.492H227.935V32.8613C227.935 27.0974 224.474 23.8594 220.163 23.8594L220.168 23.8649Z" fill="white"/>
</g>
</g>
</svg>
