<svg width="23" height="26" viewBox="0 0 23 26" fill="none" xmlns="http://www.w3.org/2000/svg">
<g id="logos:google-play-icon" clip-path="url(#clip0_218_4627)">
<path id="Vector" d="M10.7664 12.4312L0.489258 23.1985C0.604669 23.6075 0.812067 23.9847 1.0956 24.3013C1.37913 24.6179 1.73128 24.8654 2.12515 25.025C2.51901 25.1846 2.94415 25.2521 3.36807 25.2222C3.79199 25.1923 4.20347 25.0659 4.57105 24.8526L16.1348 18.2667L10.7664 12.4312Z" fill="#EA4335"/>
<path id="Vector_2" d="M21.1586 10.604L16.158 7.73979L10.5293 12.6792L16.1809 18.2543L21.1434 15.4208C21.583 15.1906 21.9513 14.8445 22.2082 14.4199C22.4651 13.9954 22.6009 13.5086 22.6009 13.0124C22.6009 12.5161 22.4651 12.0294 22.2082 11.6048C21.9513 11.1803 21.583 10.8341 21.1434 10.6039H21.1588L21.1586 10.604Z" fill="#FBBC04"/>
<path id="Vector_3" d="M0.490402 2.76097C0.428283 2.99062 0.39736 3.22759 0.398466 3.4655V22.4882C0.39911 22.726 0.430004 22.9628 0.490402 23.1928L11.1199 12.7012L0.490402 2.76097Z" fill="#4285F4"/>
<path id="Vector_4" d="M10.843 12.9789L16.1578 7.73306L4.60938 1.11644C4.17488 0.86197 3.6807 0.72721 3.17717 0.725881C1.92762 0.723453 0.829074 1.55279 0.489258 2.75533L10.843 12.9789Z" fill="#34A853"/>
</g>
<defs>
<clipPath id="clip0_218_4627">
<rect width="22.2034" height="24.5452" fill="white" transform="translate(0.398438 0.727402)"/>
</clipPath>
</defs>
</svg>
