<svg width="137" height="40" viewBox="0 0 137 40" fill="none" xmlns="http://www.w3.org/2000/svg">
<path d="M26.7133 16.4V32.15L13.1167 40L0 32.43V31.82L0.483334 31.54V31.59L13.1167 38.88L25.7433 31.59V16.9567L26.1867 16.7033L26.7133 16.4Z" fill="black"/>
<path opacity="0.5" d="M13.07 24.2733L0.483334 31.54L0 31.82V16.7266L13.07 24.2733Z" fill="black"/>
<path d="M28.97 0V15.0967L26.7133 16.4L26.1867 16.7033L25.7433 16.9567L13.07 24.2733L0 16.7267L13.1133 9.15668L28.97 0Z" fill="black"/>
<path d="M44.297 14.255C42.7604 14.2783 41.2204 14.9017 40.3737 16.415V14.455H39.3037V25.4617H40.397V19.335C40.397 17.0617 41.9804 15.345 44.2504 15.325C46.6337 15.3017 48.1737 16.6383 48.1737 19.135V25.4617H49.2637V19.1117C49.2637 16.0583 47.237 14.255 44.2937 14.255H44.297Z" fill="black"/>
<path d="M57.6002 14.2783C54.5035 14.2783 52.0068 16.6616 52.0068 19.9583C52.0068 23.4583 54.5035 25.6417 57.6002 25.6417C59.3602 25.6417 61.2768 24.9283 62.3435 23.525L61.5635 22.8983C60.7402 23.9916 59.0468 24.5717 57.6002 24.5717C55.3268 24.5717 53.3435 23.055 53.1202 20.4717H63.0368C63.4602 16.1717 60.6968 14.2783 57.6002 14.2783ZM53.1202 19.5117C53.3635 16.8183 55.3268 15.2783 57.6002 15.2783C60.2502 15.2783 62.0335 16.795 62.0568 19.5117H53.1202Z" fill="black"/>
<path d="M73.5763 14.5017V14.455H72.2597L68.9863 18.955L65.7097 14.455H64.3963V14.5017L68.3397 19.7583L64.083 25.4183V25.4617H65.3763L68.9863 20.5384L72.593 25.4617H73.8863V25.4183L69.633 19.7583L73.5763 14.5017Z" fill="black"/>
<path d="M85.0064 14.455V16.8617C84.0931 15.145 82.2898 14.3217 80.5064 14.3217C77.4298 14.3217 74.9131 16.595 74.9131 19.9583C74.9131 23.3216 77.4298 25.6417 80.5064 25.6417C82.2898 25.6417 83.9364 24.8383 85.0064 23.1217V25.4616H86.0998V14.455H85.0064ZM80.5064 24.5717C78.0098 24.5717 76.0064 22.7216 76.0064 19.9583C76.0064 17.195 78.0098 15.3683 80.5064 15.3683C86.6331 15.3683 86.6331 24.5717 80.5064 24.5717Z" fill="black"/>
<path d="M93.6103 18.7117C92.207 18.6217 91.5603 18.2217 91.5603 17.5083C91.5603 16.795 92.2737 16.415 93.5637 16.415C94.6103 16.415 95.5037 16.6617 96.2837 17.395L97.8003 15.6117C96.5303 14.4983 95.237 14.1617 93.5237 14.1617C91.517 14.1617 88.8903 15.0517 88.8903 17.5917C88.8903 20.1317 91.3637 20.845 93.437 21.0017C94.997 21.0917 95.6203 21.515 95.6203 22.2717C95.6203 23.075 94.6637 23.4983 93.637 23.475C92.4103 23.4517 90.897 23.0283 89.8503 21.9383L88.5137 23.8783C90.117 25.5483 91.857 25.8383 93.5937 25.8383C96.737 25.8383 98.317 24.1683 98.317 22.2283C98.317 19.3083 95.687 18.8417 93.6137 18.7083L93.6103 18.7117Z" fill="black"/>
<path d="M105.643 23.1917C103.95 23.1917 102.523 22.0783 102.523 19.9817C102.523 18.065 103.86 16.7283 105.687 16.7283C106.443 16.7283 107.247 17.0183 107.893 17.5983L109.61 15.795C108.407 14.615 107.203 14.1683 105.643 14.1683C102.457 14.1683 99.8066 16.085 99.8066 19.985C99.8066 23.885 102.457 25.7983 105.643 25.7983C107.27 25.7983 108.607 25.3083 109.877 24.0617L108.05 22.2783C107.38 22.945 106.513 23.1917 105.643 23.1917Z" fill="black"/>
<path d="M120.103 14.4783L120.013 15.9917C119.39 14.9017 117.987 14.2083 116.517 14.2083C113.307 14.1883 110.79 16.1717 110.79 19.9583C110.79 23.745 113.197 25.8183 116.45 25.795C117.677 25.775 119.39 25.1517 120.013 23.8583L120.15 25.4617H122.71V14.4783H120.103ZM116.763 23.3017C114.957 23.3017 113.51 22.0517 113.51 19.9583C113.51 17.865 114.957 16.6384 116.763 16.6384C121.04 16.6384 121.04 23.3017 116.763 23.3017Z" fill="black"/>
<path d="M131.87 14.2983C130.49 14.2983 129.373 14.855 128.26 15.9483L128.083 14.455H125.653V25.4616H128.35V19.845C128.35 18.175 129.487 16.7683 131.157 16.7683C132.827 16.7683 133.807 18.0383 133.807 19.7083V25.4583H136.523V19.6883C136.523 16.235 134.45 14.295 131.867 14.295L131.87 14.2983Z" fill="black"/>
</svg>
