<svg width="148" height="29" viewBox="0 0 148 29" fill="none" xmlns="http://www.w3.org/2000/svg">
<g id="Social">
<g id="1">
<circle id="BG" cx="14" cy="14.7637" r="14" fill="white" fill-opacity="0.1"/>
<g id="logo-twitter 2">
<g id="Group">
<path id="Vector" d="M20.2071 11.7468C19.7881 11.933 19.3458 12.0494 18.8802 12.1192C19.3458 11.8399 19.7183 11.3976 19.8812 10.8622C19.4389 11.1182 18.9501 11.3045 18.4146 11.4209C17.9956 10.9786 17.3904 10.6992 16.7386 10.6992C15.4815 10.6992 14.4572 11.7235 14.4572 12.9806C14.4572 13.1668 14.4805 13.3297 14.5271 13.4927C12.6415 13.3996 10.9421 12.4917 9.80141 11.095C9.61518 11.4441 9.49878 11.8166 9.49878 12.2356C9.49878 13.0271 9.89453 13.7255 10.5231 14.1445C10.1506 14.1212 9.80141 14.0281 9.4755 13.8652V13.8884C9.4755 15.0058 10.267 15.937 11.3145 16.1465C11.1283 16.1931 10.9188 16.2163 10.7093 16.2163C10.5696 16.2163 10.4067 16.1931 10.267 16.1698C10.5696 17.0777 11.4077 17.7528 12.4087 17.7528C11.6172 18.358 10.6395 18.7305 9.56862 18.7305C9.38239 18.7305 9.19616 18.7305 9.0332 18.7072C10.0575 19.359 11.2447 19.7315 12.5483 19.7315C16.7618 19.7315 19.0665 16.2396 19.0665 13.2134C19.0665 13.1202 19.0665 13.0038 19.0665 12.9107C19.5088 12.6081 19.9045 12.2124 20.2071 11.7468Z" fill="white"/>
</g>
</g>
</g>
<g id="2">
<circle id="BG_2" cx="54" cy="14.7637" r="14" fill="white" fill-opacity="0.1"/>
<g id="logo-fb-simple 2">
<g id="Group_2">
<path id="Vector_2" d="M52.7087 21.0675V15.5139H50.8398V13.3496H52.7087V11.7535C52.7087 9.90119 53.84 8.89258 55.4924 8.89258C56.2839 8.89258 56.9642 8.95151 57.1624 8.97785V10.9136L56.0164 10.9141C55.1178 10.9141 54.9438 11.3411 54.9438 11.9678V13.3496H57.087L56.8079 15.5139H54.9438V21.0675H52.7087Z" fill="white"/>
</g>
</g>
</g>
<g id="3">
<circle id="BG_3" cx="94" cy="14.7637" r="14" fill="white" fill-opacity="0.1"/>
<g id="logo-instagram 1">
<g id="Group_3">
<path id="Vector_3" d="M94.0008 9.21088C95.8095 9.21088 96.0237 9.21765 96.7382 9.25023C97.1678 9.25549 97.5933 9.33438 97.9962 9.48346C98.2884 9.59615 98.5538 9.76878 98.7753 9.99023C98.9967 10.2117 99.1694 10.4771 99.282 10.7693C99.4311 11.1722 99.51 11.5977 99.5153 12.0273C99.5475 12.7418 99.5546 12.956 99.5546 14.7647C99.5546 16.5735 99.5479 16.7877 99.5153 17.5022C99.51 17.9318 99.4311 18.3573 99.282 18.7602C99.1694 19.0524 98.9967 19.3178 98.7753 19.5393C98.5538 19.7607 98.2884 19.9333 97.9962 20.046C97.5933 20.1951 97.1678 20.274 96.7382 20.2793C96.024 20.3115 95.8098 20.3186 94.0008 20.3186C92.1917 20.3186 91.9775 20.3118 91.2633 20.2793C90.8337 20.274 90.4082 20.1951 90.0053 20.046C89.7131 19.9333 89.4477 19.7607 89.2262 19.5393C89.0048 19.3178 88.8322 19.0524 88.7195 18.7602C88.5704 18.3573 88.4915 17.9318 88.4862 17.5022C88.454 16.7877 88.4469 16.5735 88.4469 14.7647C88.4469 12.956 88.4537 12.7418 88.4862 12.0273C88.4915 11.5977 88.5704 11.1722 88.7195 10.7693C88.8322 10.4771 89.0048 10.2117 89.2262 9.99023C89.4477 9.76878 89.7131 9.59615 90.0053 9.48346C90.4082 9.33438 90.8337 9.25549 91.2633 9.25023C91.9779 9.21798 92.192 9.21088 94.0008 9.21088ZM94.0008 7.99023C92.162 7.99023 91.9304 7.99798 91.2079 8.03088C90.6456 8.04206 90.0893 8.14852 89.5627 8.34572C89.1109 8.51593 88.7017 8.78267 88.3637 9.12733C88.0187 9.46552 87.7517 9.87494 87.5814 10.327C87.3842 10.8537 87.2777 11.4099 87.2666 11.9722C87.2343 12.6941 87.2266 12.9257 87.2266 14.7644C87.2266 16.6031 87.2343 16.8348 87.2672 17.5573C87.2784 18.1196 87.3848 18.6758 87.582 19.2025C87.7522 19.6545 88.0189 20.0639 88.3637 20.4022C88.7019 20.7469 89.1113 21.0136 89.5633 21.1838C90.09 21.381 90.6463 21.4874 91.2085 21.4986C91.9311 21.5309 92.1617 21.5393 94.0014 21.5393C95.8411 21.5393 96.0717 21.5315 96.7943 21.4986C97.3565 21.4874 97.9128 21.381 98.4395 21.1838C98.8893 21.0094 99.2978 20.7431 99.6389 20.4018C99.98 20.0605 100.246 19.6518 100.42 19.2018C100.617 18.6752 100.724 18.1189 100.735 17.5567C100.767 16.8347 100.775 16.6031 100.775 14.7644C100.775 12.9257 100.767 12.6941 100.734 11.9715C100.723 11.4093 100.617 10.853 100.419 10.3264C100.249 9.87436 99.9826 9.46493 99.6379 9.12669C99.2996 8.78195 98.8902 8.5152 98.4382 8.34507C97.9115 8.14787 97.3553 8.04142 96.793 8.03023C96.0711 7.99798 95.8395 7.99023 94.0008 7.99023Z" fill="white"/>
<path id="Vector_4" d="M94.0021 11.2871C93.3141 11.2871 92.6416 11.4911 92.0695 11.8734C91.4974 12.2556 91.0515 12.7989 90.7882 13.4346C90.5249 14.0702 90.4561 14.7697 90.5903 15.4445C90.7245 16.1193 91.0558 16.7391 91.5423 17.2256C92.0288 17.7121 92.6487 18.0435 93.3235 18.1777C93.9983 18.3119 94.6977 18.243 95.3334 17.9797C95.969 17.7164 96.5123 17.2706 96.8946 16.6985C97.2768 16.1264 97.4809 15.4538 97.4809 14.7658C97.4809 13.8432 97.1144 12.9584 96.462 12.306C95.8096 11.6536 94.9248 11.2871 94.0021 11.2871ZM94.0021 17.0239C93.5555 17.0239 93.119 16.8914 92.7476 16.6433C92.3763 16.3952 92.0869 16.0425 91.916 15.6299C91.7451 15.2173 91.7003 14.7633 91.7875 14.3253C91.8746 13.8873 92.0897 13.4849 92.4055 13.1691C92.7213 12.8533 93.1236 12.6383 93.5616 12.5511C93.9996 12.464 94.4537 12.5087 94.8663 12.6796C95.2789 12.8505 95.6315 13.14 95.8797 13.5113C96.1278 13.8826 96.2602 14.3192 96.2602 14.7658C96.2602 15.3647 96.0223 15.939 95.5988 16.3625C95.1754 16.786 94.601 17.0239 94.0021 17.0239Z" fill="white"/>
<path id="Vector_5" d="M97.6176 11.9617C98.0665 11.9617 98.4305 11.5978 98.4305 11.1488C98.4305 10.6999 98.0665 10.3359 97.6176 10.3359C97.1686 10.3359 96.8047 10.6999 96.8047 11.1488C96.8047 11.5978 97.1686 11.9617 97.6176 11.9617Z" fill="white"/>
</g>
</g>
</g>
<g id="4">
<circle id="BG_4" cx="134" cy="14.7637" r="14" fill="white" fill-opacity="0.1"/>
<g id="logo-github 1">
<g id="Group_4">
<path id="Vector_6" fill-rule="evenodd" clip-rule="evenodd" d="M134.609 7.99023C131.018 7.99023 128.129 10.8792 128.129 14.4701C128.129 17.3321 129.992 19.762 132.557 20.626C132.881 20.68 132.989 20.491 132.989 20.302C132.989 20.14 132.989 19.735 132.989 19.1951C131.18 19.6 130.802 18.3311 130.802 18.3311C130.505 17.5751 130.073 17.3861 130.073 17.3861C129.479 16.9811 130.127 16.9811 130.127 16.9811C130.775 17.0351 131.126 17.6561 131.126 17.6561C131.693 18.6551 132.638 18.3581 133.016 18.1961C133.07 17.7641 133.232 17.4941 133.421 17.3321C131.99 17.1701 130.478 16.6031 130.478 14.1191C130.478 13.4171 130.721 12.8232 131.153 12.3912C131.099 12.2292 130.856 11.5812 131.207 10.6632C131.207 10.6632 131.747 10.5012 132.989 11.3382C133.502 11.2032 134.069 11.1222 134.609 11.1222C135.149 11.1222 135.716 11.2032 136.229 11.3382C137.471 10.5012 138.011 10.6632 138.011 10.6632C138.362 11.5542 138.146 12.2022 138.065 12.3912C138.47 12.8502 138.74 13.4171 138.74 14.1191C138.74 16.6031 137.228 17.1431 135.77 17.3051C136.013 17.4941 136.202 17.8991 136.202 18.4931C136.202 19.3571 136.202 20.059 136.202 20.275C136.202 20.437 136.31 20.653 136.661 20.599C139.226 19.762 141.089 17.3321 141.089 14.4701C141.089 10.8792 138.2 7.99023 134.609 7.99023Z" fill="white"/>
</g>
</g>
</g>
</g>
</svg>
