<svg width="89" height="12" viewBox="0 0 89 12" fill="none" xmlns="http://www.w3.org/2000/svg">
<path id="Vector" d="M0.0083514 3.6207C-0.0185815 3.52504 0.0198941 3.3873 0.119931 3.34521C0.166101 3.32608 0.212272 3.30312 0.26229 3.28399C0.289223 3.27252 0.320004 3.26486 0.346936 3.25338C0.40465 3.24573 0.462363 3.23808 0.520077 3.23043C0.581638 3.22277 0.650894 3.26104 0.693217 3.30312C0.697064 3.30695 0.700912 3.3146 0.708607 3.31843C5.53729 3.3873 10.366 3.45617 15.1908 3.52887C15.5217 3.53269 15.8564 3.54417 16.1873 3.55565C17.2646 3.59009 18.342 3.62835 19.4193 3.66278C19.5963 3.67044 19.7733 3.67426 19.9502 3.68191C20.2657 3.68191 20.5851 3.68191 20.9006 3.67809C21.9317 3.67044 22.9629 3.66661 23.994 3.66278C25.8601 3.65131 27.7262 3.64365 29.5884 3.63217C32.3124 3.61687 35.0365 3.61304 37.7606 3.60539C36.6525 3.50974 35.5444 3.41408 34.4324 3.31843C33.7861 3.26104 33.1397 3.20364 32.4971 3.14625C31.4506 3.1386 30.4041 3.13095 29.3575 3.12329C28.3572 3.11564 27.3606 3.11564 26.3603 3.11564C25.9178 3.11564 25.4715 3.11564 25.029 3.11564C24.5558 3.11564 24.0825 3.11564 23.6093 3.11564C22.5281 3.11564 21.4469 3.11564 20.3658 3.11182C19.2538 3.10799 18.1419 3.10416 17.0299 3.09651C16.1604 3.09268 15.287 3.09268 14.4175 3.08121C13.4209 3.06973 12.4206 3.0506 11.4241 3.03529C11.3317 3.03529 11.2509 2.95877 11.2509 2.86694C11.2509 2.77511 11.3279 2.70242 11.4241 2.69476C11.601 2.68711 11.7819 2.67181 11.9589 2.67181C12.0666 2.67181 12.1782 2.67181 12.2898 2.67181C12.6707 2.67181 13.0516 2.67563 13.4325 2.67946C13.8211 2.67946 14.2058 2.68328 14.5944 2.68711C15.8641 2.69859 17.1377 2.71389 18.4112 2.72537H19.2731C20.689 2.72537 22.101 2.72155 23.5169 2.71772C24.8751 2.71389 26.2333 2.70624 27.5915 2.70242C25.3907 2.50728 23.1899 2.31597 20.9891 2.12084C17.1338 1.78031 13.2747 1.43213 9.41948 1.08395C9.26942 1.07247 9.14245 1.03421 9.03472 0.927075C8.93084 0.823769 8.87312 0.686027 8.87312 0.544458C8.87312 0.40289 8.93084 0.261322 9.03472 0.161841C9.12706 0.0661879 9.28096 -0.0103359 9.41948 0.0011425C13.9481 0.410542 18.4728 0.816116 23.0014 1.21404C27.1952 1.58135 31.389 1.95249 35.5829 2.31597C37.4951 2.48432 39.4035 2.6412 41.3157 2.79807C42.4777 2.82868 43.6397 2.85929 44.8055 2.89372C45.8405 2.92051 46.8755 2.94729 47.9143 2.9779C48.2298 2.98555 48.5491 2.9932 48.8646 3.00851C50.9616 3.11564 53.0585 3.2266 55.1515 3.33373C56.1827 3.3873 57.2177 3.44087 58.2488 3.49443C58.572 3.50974 58.8991 3.52504 59.2223 3.548C59.7301 3.57861 60.2419 3.61304 60.7497 3.64365C61.5693 3.65513 62.385 3.67044 63.2045 3.68191C64.5165 3.70105 65.8285 3.724 67.1405 3.75461C70.5302 3.83879 73.9199 3.91914 77.3096 3.98036C77.679 3.98801 78.0484 3.98801 78.4139 3.9574C78.6178 3.92296 78.8179 3.87322 79.0141 3.80435C79.1372 3.76226 79.2911 3.79287 79.4027 3.85409C79.5143 3.91914 79.5989 4.02627 79.6336 4.15253C79.6682 4.28262 79.6528 4.42036 79.5835 4.53515C79.5143 4.65376 79.4104 4.71881 79.2834 4.76472C79.2219 4.78768 79.1603 4.81063 79.0987 4.82976C81.2726 4.97133 83.4465 5.10907 85.6165 5.24299C85.9782 5.26595 86.3399 5.27743 86.7054 5.29273C87.044 5.30804 87.3787 5.33099 87.7173 5.36543C87.8519 5.38073 87.9828 5.39986 88.1174 5.41899C88.3098 5.4496 88.4983 5.49934 88.6869 5.54143C88.7946 5.56439 88.8908 5.64856 88.9446 5.74039C89.0062 5.84753 89.0101 5.95466 88.987 6.07327C88.96 6.20336 88.8831 6.29519 88.8061 6.39467C88.7907 6.4138 88.7792 6.43293 88.7638 6.44823C88.7099 6.5018 88.6445 6.54006 88.5714 6.55919C88.533 6.57067 88.4945 6.5745 88.456 6.5745C88.3791 6.5745 88.3021 6.55537 88.2367 6.51328C88.1444 6.45971 88.0751 6.37171 88.0405 6.27223H88.0328C87.9097 6.24162 87.7904 6.22249 87.6673 6.20336C86.9362 6.11536 86.1975 6.09623 85.4626 6.03883C84.924 5.99675 84.3891 5.95466 83.8505 5.91257C83.1733 5.859 82.5 5.80926 81.8228 5.7557C80.0837 5.62178 78.3446 5.48787 76.6094 5.35778C73.3505 5.1129 70.0916 4.86037 66.8327 4.63463C66.4403 4.60785 66.0478 4.58106 65.6554 4.55428C65.2245 4.5428 64.7974 4.53515 64.3664 4.52367C63.4546 4.50071 62.5427 4.48158 61.6308 4.45863C62.762 4.55045 63.897 4.63846 65.0282 4.73028C66.1671 4.82211 67.306 4.91011 68.4449 4.99812C70.1917 5.13203 71.9384 5.27743 73.6852 5.40369C75.332 5.5223 76.9787 5.64474 78.6255 5.76718C79.4181 5.82457 80.2107 5.88196 81.0033 5.93553C81.415 5.96614 81.8228 5.99675 82.2345 6.0197C82.5077 6.03501 82.7847 6.05414 83.0579 6.07709C83.3195 6.10005 83.5812 6.14597 83.8428 6.1804C83.9467 6.19571 84.0506 6.21101 84.1544 6.23397C84.2737 6.26075 84.3814 6.31814 84.493 6.36406C84.6238 6.42145 84.7162 6.52858 84.8008 6.63954C84.8585 6.71224 84.8855 6.78876 84.924 6.87294C84.9432 6.92268 84.9663 6.97242 84.9855 7.01833C84.9855 7.02981 84.9894 7.04129 84.9932 7.05277C85.2433 7.1446 85.428 7.3933 85.428 7.66878C85.428 8.03227 85.1279 8.31923 84.7662 8.32688C84.2776 8.33836 83.7928 8.34219 83.3041 8.34219C83.1887 8.34219 83.081 8.31158 82.9848 8.25801C82.6808 8.24653 82.3807 8.23888 82.0768 8.23123C81.5573 8.21592 81.0341 8.20062 80.5146 8.18531C80.7647 8.22357 81.011 8.26184 81.2572 8.30392C81.969 8.3154 82.6808 8.33071 83.3965 8.34984C83.6004 8.35366 83.7774 8.45314 83.8928 8.60236C83.912 8.60236 83.9313 8.60236 83.9467 8.59854C84.0467 8.58323 84.1429 8.5641 84.2429 8.54115C84.4545 8.49141 84.67 8.58706 84.7585 8.78219C84.9086 8.78985 85.0586 8.79367 85.2087 8.80515C85.3664 8.81663 85.5011 8.85872 85.6165 8.9735C85.7242 9.08064 85.7858 9.22603 85.7858 9.37908C85.7858 9.50151 85.7396 9.62012 85.6665 9.7196C85.6781 9.7196 85.6896 9.7196 85.6973 9.7196C86.1167 9.68517 86.5361 9.66986 86.9555 9.62395C87.2017 9.58569 87.4479 9.53977 87.6826 9.4556C87.6942 9.41351 87.7057 9.37142 87.7134 9.32934C87.7134 9.30638 87.7134 9.2796 87.7173 9.25664C87.725 9.11507 87.7673 8.99263 87.8712 8.89315C87.9674 8.7975 88.102 8.74011 88.2367 8.74011C88.3714 8.74011 88.506 8.79367 88.6022 8.89315C88.6907 8.98115 88.7677 9.12655 88.7561 9.25664C88.7446 9.3829 88.7253 9.50534 88.7061 9.6316C88.683 9.75021 88.6176 9.86883 88.5714 9.97596C88.5483 10.0066 88.5253 10.0334 88.506 10.064C88.4599 10.1405 88.3983 10.2017 88.3213 10.2476C88.229 10.3165 88.1328 10.3662 88.0251 10.4045C87.7981 10.4887 87.5634 10.5269 87.3287 10.5728C86.9785 10.6417 86.613 10.657 86.2591 10.6761C85.6973 10.7068 85.1356 10.7565 84.5738 10.8024C83.7004 10.8713 82.827 10.9325 81.9498 10.9899C81.1341 11.0435 80.3184 11.1047 79.5027 11.1429C78.3408 11.2042 77.1788 11.2615 76.0207 11.3189C75.2743 11.3572 74.524 11.4031 73.7776 11.4337C72.908 11.4682 72.0423 11.5026 71.1728 11.537C69.8377 11.5906 68.5064 11.6442 67.1713 11.6977C66.598 11.7207 66.0247 11.7513 65.4515 11.7666C63.3853 11.8125 61.3192 11.8546 59.253 11.9005C58.0641 11.9273 56.8714 11.9503 55.6825 11.977C55.3247 11.9847 54.9669 12 54.609 12C54.5706 12 54.5321 12 54.4898 12C50.5806 11.9617 46.6715 11.9273 42.7663 11.8814C42.6431 11.8814 42.52 11.8699 42.4007 11.8623C42.066 11.847 41.7313 11.8316 41.3965 11.8125C40.2846 11.759 39.1765 11.7054 38.0684 11.648C35.4444 11.5217 32.8203 11.3916 30.1924 11.2615C29.4576 11.2271 28.7188 11.1889 27.9839 11.1544C27.7608 11.1429 27.5376 11.12 27.3145 11.1009C26.7335 11.1276 26.1525 11.1544 25.5677 11.1774C23.6362 11.2654 21.7047 11.3496 19.7771 11.4376C19.3115 11.4567 18.8421 11.4796 18.3766 11.4988C17.8803 11.5217 17.3839 11.5294 16.8876 11.5409C15.818 11.5638 14.7483 11.5791 13.6826 11.6021C13.6826 11.6021 13.6749 11.6021 13.671 11.6021C13.4132 11.6021 13.2016 11.3763 13.2016 11.1238C13.2016 10.8713 13.4209 10.6532 13.6826 10.6455C14.7522 10.6226 15.8218 10.6034 16.8876 10.5805C17.3839 10.569 17.8803 10.5614 18.3766 10.5384C18.8421 10.5154 19.3115 10.4963 19.7771 10.4734C20.0157 10.4619 20.2542 10.4504 20.4889 10.4389C18.0688 10.2094 15.6525 9.97596 13.2324 9.74639C12.4552 9.67369 11.6741 9.59717 10.8969 9.52447C10.1928 9.4556 9.49258 9.37908 8.78848 9.2949C7.78427 9.3102 6.78005 9.32934 5.77584 9.34464C5.54499 9.34847 5.35261 9.14951 5.35261 8.92376C5.35261 8.90463 5.35261 8.88933 5.35646 8.8702C4.96016 8.82046 4.56386 8.77072 4.16371 8.72098C4.12139 8.71715 4.07522 8.7095 4.0329 8.70184C3.94825 8.67889 3.87515 8.6368 3.81359 8.57558C3.72124 8.48375 3.66738 8.35749 3.66738 8.2274C3.66738 8.09731 3.72124 7.97105 3.81359 7.87922C3.89823 7.79504 4.04444 7.71852 4.16371 7.73382C5.51805 7.89835 6.86855 8.07053 8.22289 8.23888C8.78463 8.30775 9.34637 8.37662 9.90812 8.44167C13.1824 8.39193 16.4605 8.34601 19.7348 8.30392C22.5627 8.26566 25.3945 8.2427 28.2225 8.21592C28.6111 8.21592 29.0035 8.20827 29.3921 8.20444C26.4488 8.06288 23.5054 7.92513 20.562 7.78357C18.7613 7.69939 16.9607 7.61139 15.1562 7.52721C12.6553 7.4086 10.1544 7.25173 7.6496 7.10633C7.488 7.09868 7.34564 7.04894 7.22637 6.93416C7.11479 6.8232 7.05323 6.67015 7.05323 6.51328C7.05323 6.20336 7.32641 5.90109 7.6496 5.92022C9.71189 6.03883 11.7742 6.1651 13.8403 6.27223C12.1551 6.15744 10.4699 6.04266 8.78463 5.9317C7.58419 5.85135 6.3876 5.68683 5.19101 5.55291C5.08713 5.54143 5.00633 5.51847 4.92938 5.44578C4.86012 5.37691 4.82165 5.28125 4.82165 5.1856C4.82165 5.08994 4.86012 4.99429 4.92938 4.92542C4.99094 4.8642 5.09867 4.80681 5.19101 4.81829C6.39914 4.9522 7.60343 5.1129 8.81541 5.19325C9.71959 5.25447 10.6276 5.31186 11.5318 5.37308C13.7018 5.51847 15.8718 5.66004 18.0419 5.80161C18.3304 5.82074 18.6151 5.8437 18.9037 5.85135C19.627 5.86283 20.3504 5.87431 21.0737 5.88579C22.2665 5.90492 23.4631 5.92405 24.6558 5.94318C23.7824 5.86283 22.9129 5.78631 22.0395 5.70596C21.1084 5.62178 20.1811 5.52995 19.2461 5.46873C17.507 5.35395 15.7679 5.23534 14.0289 5.12055C13.9942 5.21238 13.9096 5.2889 13.8095 5.2889C13.8057 5.2889 13.8018 5.2889 13.798 5.2889C11.4394 5.15116 9.08089 5.00577 6.72234 4.85655C6.63 4.85272 6.5492 4.81063 6.50303 4.73028C6.48379 4.69585 6.4761 4.65759 6.47225 4.6155C6.44916 4.6155 6.42223 4.6155 6.39914 4.61167C6.40684 4.6308 6.41069 4.65376 6.41069 4.67672C6.41069 4.78768 6.31065 4.90246 6.19522 4.89481C5.22949 4.82211 4.26375 4.74559 3.29801 4.66907C2.28611 4.58872 1.27805 4.47393 0.269985 4.35532C0.189187 4.34767 0.123778 4.32088 0.081455 4.24819C0.0275892 4.15636 0.0506745 4.06071 0.116083 3.98418C0.169949 3.91914 0.219967 3.85027 0.285376 3.80053C0.27768 3.80053 0.269985 3.80053 0.258443 3.80053C0.150711 3.80053 0.0506745 3.72783 0.0198941 3.6207H0.0083514ZM53.8511 4.95603C51.1924 4.73411 48.5376 4.50837 45.8789 4.28262C45.3941 4.28262 44.9093 4.28262 44.4207 4.28262C42.8394 4.2788 41.2619 4.26732 39.6805 4.26732C38.5186 4.26732 37.3566 4.26732 36.1985 4.26349C36.6448 4.2788 37.095 4.29793 37.5413 4.31323C41.0695 4.44332 44.5977 4.58872 48.1259 4.72263C49.8689 4.7915 51.6118 4.86803 53.3547 4.94072C53.5202 4.94838 53.6818 4.9522 53.8472 4.95985L53.8511 4.95603ZM67.0944 7.76061C65.4168 7.70322 63.7393 7.62669 62.0618 7.55782C58.145 7.39712 54.2281 7.22877 50.3152 7.05277C48.9185 6.99155 47.5218 6.93416 46.1252 6.86528C45.2518 6.8232 44.3745 6.78111 43.5011 6.73902C43.051 6.73902 42.6008 6.74667 42.1507 6.7505C44.4207 6.92268 46.6946 7.09868 48.9647 7.27086C49.3956 7.30529 49.8304 7.3206 50.2651 7.34738C51.4464 7.41625 52.6237 7.48512 53.8049 7.55399C54.9938 7.62287 56.1865 7.69174 57.3754 7.76061C58.3643 7.77974 59.3569 7.79887 60.3457 7.82183C62.5812 7.87539 64.8166 7.93279 67.052 7.98635C68.2294 8.01696 69.4067 8.03992 70.5841 8.08201C71.2536 8.10496 71.9269 8.13175 72.5964 8.1547C72.6772 8.07053 72.7811 8.00548 72.8888 7.98253C72.9196 7.97487 72.9503 7.97105 72.9811 7.96339C71.0189 7.89452 69.0605 7.82565 67.0982 7.75678L67.0944 7.76061ZM42.5777 10.8942C42.8932 10.9095 43.2087 10.9057 43.5204 10.9095C44.6054 10.921 45.6866 10.9325 46.7716 10.944C49.1763 10.9708 51.5772 10.9937 53.9819 11.0205C54.3012 11.0205 54.6167 11.0282 54.9361 11.0205C55.9134 11.0014 56.8868 10.9784 57.8641 10.9593C60.2496 10.9095 62.6351 10.8598 65.0205 10.8101C65.3976 10.8024 65.7708 10.7871 66.1479 10.7756C67.3521 10.7297 68.5564 10.68 69.7646 10.6341C71.4267 10.569 73.0927 10.5116 74.7549 10.4274C76.6479 10.3318 78.5408 10.2514 80.43 10.1252C81.0648 10.0831 81.6997 10.041 82.3345 9.99891C82.7001 9.97596 83.0656 9.95683 83.4311 9.92622C83.5157 9.91857 83.5965 9.91091 83.6812 9.90709C83.1002 9.8803 82.5154 9.85352 81.9344 9.82674C81.8574 9.83822 81.7843 9.84969 81.7074 9.85735C81.5689 9.87265 81.4304 9.87648 81.2919 9.87648H81.2803C80.9956 9.87648 80.7109 9.85352 80.43 9.83439C80.3607 9.83056 80.2876 9.82674 80.2184 9.82291C80.0876 9.99126 79.8836 10.1022 79.6605 10.0984C78.4639 10.0793 77.2712 10.0754 76.0746 10.0219C75.0627 9.97978 74.0508 9.93387 73.0388 9.89178C71.673 9.83439 70.3071 9.777 68.9412 9.72343C67.4445 9.66221 65.9478 9.60099 64.4511 9.53595C64.0394 9.52064 63.6316 9.50151 63.2199 9.48238C62.2657 9.48238 61.3115 9.49003 60.3573 9.49003C59.4339 9.49003 58.5105 9.49769 57.5871 9.49769C57.3062 9.49769 57.0292 9.49769 56.7483 9.50534C55.0746 9.57421 53.4048 9.64308 51.7311 9.71195C50.0728 9.78082 48.4183 9.84969 46.76 9.91857C46.5715 9.92622 46.3868 9.94152 46.2021 9.953C45.5788 9.99509 44.9517 10.0372 44.3284 10.0793C41.7313 10.2553 39.1342 10.4274 36.5332 10.5996C38.5493 10.6991 40.5616 10.7986 42.5777 10.8981V10.8942ZM21.874 9.14951C20.4697 9.16481 19.0653 9.18394 17.6609 9.19925C18.3189 9.26046 18.973 9.32551 19.6309 9.38673C21.9587 9.60865 24.2864 9.83056 26.6142 10.0525C26.8951 10.0793 27.176 10.106 27.453 10.1328C28.6765 10.0754 29.9039 10.018 31.1274 9.96448C31.7392 9.9377 32.3471 9.90326 32.955 9.86117C36.7602 9.59717 40.5655 9.32934 44.3707 9.06533C44.5592 9.05385 44.7516 9.03855 44.9401 9.02324C43.3434 9.02324 41.7428 9.03089 40.1461 9.03472C37.1873 9.04237 34.2247 9.06533 31.2659 9.08446C28.134 9.10359 24.9982 9.11124 21.8663 9.14951H21.874ZM25.9101 6.7658C26.9297 6.81937 27.9532 6.87294 28.9728 6.93033C30.1232 6.99155 31.2698 7.06425 32.4202 7.11016C33.7976 7.16755 35.1712 7.22494 36.5486 7.27851C38.2839 7.32825 40.0153 7.37799 41.7505 7.42773C40.7694 7.35121 39.7882 7.27468 38.8071 7.19816C37.7029 7.11016 36.5986 7.03364 35.4982 6.93416C35.0173 6.89207 34.5402 6.84615 34.0592 6.80407H33.963C32.9511 6.81172 31.9392 6.81554 30.9312 6.8232C30.608 6.8232 30.2886 6.83468 29.9654 6.8232C28.4341 6.79259 26.9028 6.7658 25.3715 6.7352C25.5523 6.74285 25.7293 6.75433 25.9101 6.76198V6.7658ZM13.7095 4.34001C15.8988 4.48924 18.088 4.63846 20.2773 4.78768C21.6509 4.8795 23.0244 4.98664 24.4019 5.05933C26.8451 5.19325 29.2883 5.32717 31.7315 5.46108C33.005 5.52995 34.2785 5.60648 35.5521 5.66004C37.5028 5.74039 39.4574 5.82074 41.4081 5.90109C43.4127 5.87431 45.4211 5.8437 47.4257 5.81309C48.6415 5.79396 49.8573 5.771 51.0731 5.75952C52.5891 5.74804 54.1089 5.73657 55.6248 5.72509C53.6048 5.62943 51.5849 5.53378 49.5687 5.43812C45.8905 5.26212 42.2161 5.10907 38.5378 4.94838C34.8095 4.78385 31.0851 4.63846 27.3568 4.48541C26.0717 4.43184 24.7828 4.38975 23.4977 4.34384C22.782 4.31706 22.0664 4.29028 21.3508 4.26732C20.8775 4.26732 20.4004 4.26732 19.9272 4.26732C19.4924 4.26732 19.0538 4.2788 18.619 4.28262C17.4917 4.2941 16.3682 4.30941 15.2408 4.32088C14.6983 4.32854 14.1558 4.33236 13.6133 4.34001C13.6441 4.34001 13.6749 4.34384 13.7095 4.34767V4.34001ZM7.46492 3.94209C7.50339 3.93444 7.53802 3.92296 7.5765 3.91531C7.33025 3.91148 7.08401 3.90766 6.83777 3.90383C7.04553 3.91531 7.25715 3.93062 7.46492 3.94209ZM1.90904 4.10662C1.90904 4.05688 1.92444 4.00714 1.94752 3.96122C1.71282 3.96122 1.48197 3.96122 1.24726 3.98801C1.18955 3.99566 1.12799 4.00714 1.07028 4.01862C1.35115 4.05305 1.62817 4.07984 1.90904 4.10662Z" fill="#FFA800"/>
</svg>
